<svg xmlns="http://www.w3.org/2000/svg" viewBox="0 0 720 720" width="720" height="720" fill="none"><defs><style>.s{stroke:currentColor;fill:none;stroke-width:2.8;stroke-linecap:round;stroke-linejoin:round}.t{font:700 11px/1.1 Inter,Segoe UI,Arial,sans-serif;letter-spacing:.08em}</style><symbol id="megaphone" viewBox="0 0 64 64"><g fill="none" stroke="currentColor" stroke-width="2.8" stroke-linecap="round" stroke-linejoin="round"><path d="M12 28l24-10v28L12 36z"/><path d="M36 20h8c4 0 8-3 10-6v36c-2-3-6-6-10-6h-8"/><path d="M18 38l6 12c1.4 2.8 5.1 4 7.9 2.6l1.1-.6"/><path d="M50 24l4-2M50 40l4 2M50 32h6"/></g></symbol><symbol id="target" viewBox="0 0 64 64"><g fill="none" stroke="currentColor" stroke-width="2.8" stroke-linecap="round" stroke-linejoin="round"><circle cx="32" cy="32" r="22"/><circle cx="32" cy="32" r="14"/><circle cx="32" cy="32" r="6"/><path d="M38 26l11-11"/><path d="M45 15h4v4"/></g></symbol><symbol id="bars" viewBox="0 0 64 64"><g fill="none" stroke="currentColor" stroke-width="2.8" stroke-linecap="round" stroke-linejoin="round"><path d="M10 50h44"/><rect x="14" y="34" width="8" height="16" rx="2"/><rect x="28" y="24" width="8" height="26" rx="2"/><rect x="42" y="16" width="8" height="34" rx="2"/><path d="M16 20l8-8 8 6 14-10"/><path d="M46 8h4v4"/></g></symbol><symbol id="search" viewBox="0 0 64 64"><g fill="none" stroke="currentColor" stroke-width="2.8" stroke-linecap="round" stroke-linejoin="round"><circle cx="28" cy="28" r="14"/><path d="M38 38l14 14"/><path d="M22 28h12M28 22v12"/></g></symbol><symbol id="mail" viewBox="0 0 64 64"><g fill="none" stroke="currentColor" stroke-width="2.8" stroke-linecap="round" stroke-linejoin="round"><rect x="10" y="16" width="44" height="32" rx="5"/><path d="M14 20l18 14 18-14"/><path d="M24 31l-10 11M40 31l10 11"/></g></symbol><symbol id="phone" viewBox="0 0 64 64"><g fill="none" stroke="currentColor" stroke-width="2.8" stroke-linecap="round" stroke-linejoin="round"><rect x="20" y="10" width="24" height="44" rx="5"/><path d="M28 16h8"/><path d="M26 22h12M26 28h12M26 34h8"/><circle cx="32" cy="47" r="2"/></g></symbol><symbol id="bulb" viewBox="0 0 64 64"><g fill="none" stroke="currentColor" stroke-width="2.8" stroke-linecap="round" stroke-linejoin="round"><path d="M22 28c0-8 5-14 10-14s10 6 10 14c0 5-2 8-6 12v4H28v-4c-4-4-6-7-6-12z"/><path d="M27 49h10M28 54h8"/></g></symbol><symbol id="coin" viewBox="0 0 64 64"><g fill="none" stroke="currentColor" stroke-width="2.8" stroke-linecap="round" stroke-linejoin="round"><circle cx="32" cy="32" r="18"/><path d="M36 24c-1.1-1.6-3.2-2.6-5.7-2.6-3.5 0-6.3 2-6.3 4.8 0 2.6 2.1 4.1 6.7 5l2.7.5c3.9.7 5.7 2 5.7 4.6 0 3.1-3 5.2-7 5.2-3.2 0-5.8-1.2-7.1-3.2"/><path d="M32 18v28"/></g></symbol><symbol id="cursor" viewBox="0 0 64 64"><g fill="none" stroke="currentColor" stroke-width="2.8" stroke-linecap="round" stroke-linejoin="round"><path d="M18 14l10 30 5-12 13 13 6-6-13-13 12-5z"/></g></symbol><symbol id="chat" viewBox="0 0 64 64"><g fill="none" stroke="currentColor" stroke-width="2.8" stroke-linecap="round" stroke-linejoin="round"><path d="M14 18h36a6 6 0 016 6v14a6 6 0 01-6 6H29l-9 8v-8h-6a6 6 0 01-6-6V24a6 6 0 016-6z"/><path d="M22 31h20M22 25h12"/></g></symbol></defs><circle cx="440.3" cy="429.0" r="2.2" fill="#94A3B8" opacity=".45"/><circle cx="675.0" cy="112.3" r="2.8" fill="#9CA3AF" opacity=".45"/><circle cx="15.4" cy="575.5" r="2.8" fill="#94A3B8" opacity=".45"/><circle cx="74.0" cy="539.6" r="1.6" fill="#CBD5E1" opacity=".45"/><circle cx="710.3" cy="140.3" r="1.6" fill="#9CA3AF" opacity=".45"/><circle cx="181.3" cy="210.9" r="1.6" fill="#94A3B8" opacity=".45"/><circle cx="234.7" cy="391.9" r="1.6" fill="#9CA3AF" opacity=".45"/><circle cx="655.2" cy="254.7" r="2.2" fill="#94A3B8" opacity=".45"/><circle cx="420.0" cy="651.1" r="2.2" fill="#94A3B8" opacity=".45"/><circle cx="94.1" cy="109.3" r="2.8" fill="#9CA3AF" opacity=".45"/><circle cx="628.4" cy="559.1" r="2.8" fill="#9CA3AF" opacity=".45"/><circle cx="558.7" cy="107.9" r="1.6" fill="#CBD5E1" opacity=".45"/><circle cx="445.8" cy="86.6" r="1.6" fill="#CBD5E1" opacity=".45"/><circle cx="491.3" cy="382.1" r="2.2" fill="#9CA3AF" opacity=".45"/><circle cx="635.9" cy="40.9" r="1.6" fill="#CBD5E1" opacity=".45"/><circle cx="30.4" cy="70.4" r="2.2" fill="#94A3B8" opacity=".45"/><circle cx="20.1" cy="643.7" r="1.6" fill="#CBD5E1" opacity=".45"/><circle cx="234.4" cy="700.8" r="2.8" fill="#94A3B8" opacity=".45"/><circle cx="143.6" cy="199.6" r="2.8" fill="#94A3B8" opacity=".45"/><circle cx="581.3" cy="365.6" r="1.6" fill="#94A3B8" opacity=".45"/><circle cx="376.7" cy="630.7" r="2.2" fill="#94A3B8" opacity=".45"/><circle cx="642.8" cy="145.9" r="2.2" fill="#9CA3AF" opacity=".45"/><circle cx="300.0" cy="282.5" r="2.2" fill="#9CA3AF" opacity=".45"/><circle cx="483.2" cy="308.4" r="1.6" fill="#94A3B8" opacity=".45"/><circle cx="218.0" cy="88.1" r="1.6" fill="#94A3B8" opacity=".45"/><circle cx="463.3" cy="263.7" r="2.2" fill="#9CA3AF" opacity=".45"/><circle cx="696.6" cy="158.1" r="1.6" fill="#CBD5E1" opacity=".45"/><circle cx="637.2" cy="117.2" r="2.8" fill="#9CA3AF" opacity=".45"/><circle cx="116.3" cy="310.7" r="2.8" fill="#CBD5E1" opacity=".45"/><circle cx="244.2" cy="140.9" r="2.2" fill="#9CA3AF" opacity=".45"/><circle cx="519.9" cy="14.0" r="2.8" fill="#CBD5E1" opacity=".45"/><circle cx="317.1" cy="13.0" r="2.2" fill="#94A3B8" opacity=".45"/><circle cx="449.2" cy="368.8" r="1.6" fill="#9CA3AF" opacity=".45"/><circle cx="709.3" cy="567.6" r="1.6" fill="#9CA3AF" opacity=".45"/><circle cx="191.2" cy="28.5" r="1.6" fill="#CBD5E1" opacity=".45"/><circle cx="544.2" cy="590.2" r="2.8" fill="#CBD5E1" opacity=".45"/><circle cx="292.3" cy="386.4" r="2.8" fill="#94A3B8" opacity=".45"/><circle cx="356.1" cy="235.5" r="2.2" fill="#9CA3AF" opacity=".45"/><circle cx="575.7" cy="132.0" r="1.6" fill="#CBD5E1" opacity=".45"/><circle cx="675.6" cy="456.8" r="2.2" fill="#9CA3AF" opacity=".45"/><circle cx="437.9" cy="160.1" r="2.2" fill="#9CA3AF" opacity=".45"/><circle cx="326.7" cy="244.2" r="2.8" fill="#CBD5E1" opacity=".45"/><circle cx="667.2" cy="192.9" r="1.6" fill="#9CA3AF" opacity=".45"/><circle cx="379.4" cy="171.7" r="1.6" fill="#9CA3AF" opacity=".45"/><circle cx="188.6" cy="130.4" r="2.2" fill="#94A3B8" opacity=".45"/><circle cx="219.6" cy="546.8" r="2.2" fill="#CBD5E1" opacity=".45"/><circle cx="360.1" cy="128.1" r="2.2" fill="#9CA3AF" opacity=".45"/><circle cx="716.0" cy="26.6" r="1.6" fill="#94A3B8" opacity=".45"/><circle cx="364.1" cy="704.2" r="2.8" fill="#CBD5E1" opacity=".45"/><circle cx="176.9" cy="321.9" r="2.8" fill="#94A3B8" opacity=".45"/><circle cx="311.2" cy="356.4" r="2.2" fill="#94A3B8" opacity=".45"/><circle cx="221.6" cy="154.9" r="1.6" fill="#CBD5E1" opacity=".45"/><circle cx="143.0" cy="635.0" r="2.8" fill="#94A3B8" opacity=".45"/><circle cx="100.6" cy="712.4" r="1.6" fill="#9CA3AF" opacity=".45"/><circle cx="10.3" cy="450.3" r="2.2" fill="#CBD5E1" opacity=".45"/><circle cx="117.5" cy="60.8" r="2.2" fill="#94A3B8" opacity=".45"/><circle cx="482.8" cy="203.0" r="1.6" fill="#94A3B8" opacity=".45"/><circle cx="211.0" cy="330.8" r="1.6" fill="#CBD5E1" opacity=".45"/><circle cx="321.0" cy="189.5" r="2.2" fill="#94A3B8" opacity=".45"/><circle cx="232.9" cy="24.8" r="2.2" fill="#9CA3AF" opacity=".45"/><circle cx="256.7" cy="0.8" r="2.2" fill="#9CA3AF" opacity=".45"/><circle cx="341.7" cy="362.0" r="1.6" fill="#9CA3AF" opacity=".45"/><circle cx="363.4" cy="3.6" r="2.2" fill="#9CA3AF" opacity=".45"/><circle cx="103.6" cy="422.5" r="2.2" fill="#9CA3AF" opacity=".45"/><circle cx="215.7" cy="453.4" r="1.6" fill="#94A3B8" opacity=".45"/><circle cx="689.5" cy="614.3" r="1.6" fill="#94A3B8" opacity=".45"/><circle cx="642.8" cy="564.5" r="2.8" fill="#CBD5E1" opacity=".45"/><circle cx="550.3" cy="518.9" r="2.2" fill="#9CA3AF" opacity=".45"/><circle cx="204.6" cy="445.5" r="1.6" fill="#9CA3AF" opacity=".45"/><circle cx="593.9" cy="514.8" r="2.8" fill="#94A3B8" opacity=".45"/><circle cx="309.1" cy="504.8" r="2.8" fill="#9CA3AF" opacity=".45"/><circle cx="655.1" cy="542.1" r="2.8" fill="#9CA3AF" opacity=".45"/><circle cx="595.0" cy="420.5" r="2.8" fill="#94A3B8" opacity=".45"/><circle cx="688.4" cy="462.9" r="1.6" fill="#9CA3AF" opacity=".45"/><circle cx="30.1" cy="458.7" r="1.6" fill="#CBD5E1" opacity=".45"/><circle cx="601.8" cy="402.1" r="2.8" fill="#9CA3AF" opacity=".45"/><circle cx="450.9" cy="490.1" r="2.2" fill="#CBD5E1" opacity=".45"/><circle cx="2.4" cy="574.3" r="2.8" fill="#94A3B8" opacity=".45"/><circle cx="646.5" cy="66.2" r="2.8" fill="#9CA3AF" opacity=".45"/><circle cx="536.9" cy="341.2" r="1.6" fill="#CBD5E1" opacity=".45"/><circle cx="169.0" cy="544.6" r="1.6" fill="#94A3B8" opacity=".45"/><circle cx="468.0" cy="331.4" r="2.2" fill="#9CA3AF" opacity=".45"/><circle cx="344.9" cy="492.3" r="1.6" fill="#94A3B8" opacity=".45"/><circle cx="455.6" cy="142.8" r="2.8" fill="#9CA3AF" opacity=".45"/><circle cx="238.9" cy="469.1" r="2.8" fill="#CBD5E1" opacity=".45"/><circle cx="447.2" cy="96.1" r="2.2" fill="#9CA3AF" opacity=".45"/><circle cx="349.8" cy="700.2" r="1.6" fill="#94A3B8" opacity=".45"/><circle cx="156.7" cy="352.5" r="2.8" fill="#94A3B8" opacity=".45"/><circle cx="205.6" cy="335.4" r="1.6" fill="#94A3B8" opacity=".45"/><circle cx="143.5" cy="704.3" r="2.2" fill="#9CA3AF" opacity=".45"/><circle cx="208.5" cy="55.1" r="2.8" fill="#CBD5E1" opacity=".45"/><circle cx="715.7" cy="278.5" r="1.6" fill="#9CA3AF" opacity=".45"/><circle cx="418.7" cy="102.1" r="2.8" fill="#CBD5E1" opacity=".45"/><circle cx="686.0" cy="95.5" r="2.8" fill="#94A3B8" opacity=".45"/><circle cx="201.3" cy="81.1" r="2.2" fill="#9CA3AF" opacity=".45"/><circle cx="358.5" cy="630.8" r="2.2" fill="#9CA3AF" opacity=".45"/><circle cx="114.5" cy="684.0" r="2.8" fill="#CBD5E1" opacity=".45"/><circle cx="291.9" cy="523.6" r="2.2" fill="#CBD5E1" opacity=".45"/><circle cx="270.8" cy="87.1" r="2.2" fill="#9CA3AF" opacity=".45"/><circle cx="233.7" cy="243.6" r="2.2" fill="#9CA3AF" opacity=".45"/><circle cx="676.7" cy="140.9" r="1.6" fill="#94A3B8" opacity=".45"/><circle cx="208.7" cy="268.0" r="2.2" fill="#CBD5E1" opacity=".45"/><circle cx="719.1" cy="424.2" r="2.2" fill="#CBD5E1" opacity=".45"/><circle cx="544.1" cy="615.1" r="2.2" fill="#9CA3AF" opacity=".45"/><circle cx="37.2" cy="476.6" r="2.8" fill="#9CA3AF" opacity=".45"/><circle cx="179.5" cy="191.3" r="2.8" fill="#CBD5E1" opacity=".45"/><circle cx="136.7" cy="268.8" r="2.2" fill="#9CA3AF" opacity=".45"/><circle cx="584.6" cy="454.2" r="2.8" fill="#94A3B8" opacity=".45"/><circle cx="146.5" cy="58.0" r="2.8" fill="#CBD5E1" opacity=".45"/><circle cx="324.6" cy="541.9" r="2.8" fill="#CBD5E1" opacity=".45"/><circle cx="349.6" cy="656.6" r="2.8" fill="#9CA3AF" opacity=".45"/><circle cx="122.9" cy="298.7" r="2.2" fill="#CBD5E1" opacity=".45"/><circle cx="184.1" cy="531.9" r="2.8" fill="#CBD5E1" opacity=".45"/><circle cx="292.5" cy="171.8" r="2.2" fill="#94A3B8" opacity=".45"/><circle cx="481.6" cy="86.2" r="2.8" fill="#9CA3AF" opacity=".45"/><circle cx="54.1" cy="360.4" r="2.2" fill="#94A3B8" opacity=".45"/><circle cx="158.4" cy="652.5" r="2.2" fill="#CBD5E1" opacity=".45"/><circle cx="100.5" cy="138.5" r="1.6" fill="#9CA3AF" opacity=".45"/><circle cx="246.2" cy="65.6" r="1.6" fill="#CBD5E1" opacity=".45"/><circle cx="186.0" cy="410.1" r="1.6" fill="#94A3B8" opacity=".45"/><circle cx="626.8" cy="275.6" r="2.8" fill="#94A3B8" opacity=".45"/><circle cx="151.2" cy="194.6" r="1.6" fill="#CBD5E1" opacity=".45"/><circle cx="199.8" cy="696.7" r="1.6" fill="#94A3B8" opacity=".45"/><circle cx="362.4" cy="453.3" r="1.6" fill="#9CA3AF" opacity=".45"/><circle cx="195.1" cy="178.9" r="2.2" fill="#94A3B8" opacity=".45"/><circle cx="321.0" cy="686.8" r="1.6" fill="#9CA3AF" opacity=".45"/><circle cx="23.2" cy="510.8" r="2.2" fill="#94A3B8" opacity=".45"/><circle cx="352.7" cy="52.7" r="2.8" fill="#CBD5E1" opacity=".45"/><circle cx="700.0" cy="178.9" r="1.6" fill="#9CA3AF" opacity=".45"/><circle cx="111.2" cy="376.1" r="2.8" fill="#9CA3AF" opacity=".45"/><circle cx="677.9" cy="519.6" r="2.8" fill="#CBD5E1" opacity=".45"/><circle cx="61.2" cy="559.3" r="1.6" fill="#9CA3AF" opacity=".45"/><circle cx="167.5" cy="662.3" r="2.8" fill="#94A3B8" opacity=".45"/><circle cx="218.7" cy="92.1" r="2.2" fill="#94A3B8" opacity=".45"/><circle cx="458.1" cy="503.0" r="1.6" fill="#9CA3AF" opacity=".45"/><circle cx="50.7" cy="377.6" r="2.8" fill="#9CA3AF" opacity=".45"/><circle cx="279.4" cy="161.0" r="2.8" fill="#9CA3AF" opacity=".45"/><circle cx="7.5" cy="217.1" r="2.2" fill="#CBD5E1" opacity=".45"/><circle cx="690.4" cy="464.1" r="1.6" fill="#CBD5E1" opacity=".45"/><circle cx="378.9" cy="393.8" r="1.6" fill="#CBD5E1" opacity=".45"/><path d="M502.4 221.3H512.4M507.4 216.3V226.3" stroke="#94A3B8" stroke-width="1.6" stroke-linecap="round" opacity=".6"/><path d="M352.8 485.6H364.8M358.8 479.6V491.6" stroke="#94A3B8" stroke-width="1.6" stroke-linecap="round" opacity=".6"/><path d="M179.2 480.5H191.2M185.2 474.5V486.5" stroke="#94A3B8" stroke-width="1.6" stroke-linecap="round" opacity=".6"/><path d="M347.9 501.0H361.9M354.9 494.0V508.0" stroke="#CBD5E1" stroke-width="1.6" stroke-linecap="round" opacity=".6"/><path d="M255.9 285.4H265.9M260.9 280.4V290.4" stroke="#CBD5E1" stroke-width="1.6" stroke-linecap="round" opacity=".6"/><path d="M527.2 363.5H537.2M532.2 358.5V368.5" stroke="#CBD5E1" stroke-width="1.6" stroke-linecap="round" opacity=".6"/><path d="M693.3 224.4H703.3M698.3 219.4V229.4" stroke="#94A3B8" stroke-width="1.6" stroke-linecap="round" opacity=".6"/><path d="M328.9 190.8H340.9M334.9 184.8V196.8" stroke="#94A3B8" stroke-width="1.6" stroke-linecap="round" opacity=".6"/><path d="M680.4 357.0H690.4M685.4 352.0V362.0" stroke="#94A3B8" stroke-width="1.6" stroke-linecap="round" opacity=".6"/><path d="M344.2 655.5H354.2M349.2 650.5V660.5" stroke="#94A3B8" stroke-width="1.6" stroke-linecap="round" opacity=".6"/><path d="M658.8 39.1H668.8M663.8 34.1V44.1" stroke="#94A3B8" stroke-width="1.6" stroke-linecap="round" opacity=".6"/><path d="M294.1 511.1H304.1M299.1 506.1V516.1" stroke="#CBD5E1" stroke-width="1.6" stroke-linecap="round" opacity=".6"/><path d="M317.7 512.7H329.7M323.7 506.7V518.7" stroke="#94A3B8" stroke-width="1.6" stroke-linecap="round" opacity=".6"/><path d="M712.2 670.7H724.2M718.2 664.7V676.7" stroke="#94A3B8" stroke-width="1.6" stroke-linecap="round" opacity=".6"/><path d="M126.6 673.8H140.6M133.6 666.8V680.8" stroke="#CBD5E1" stroke-width="1.6" stroke-linecap="round" opacity=".6"/><path d="M17.0 478.4H29.0M23.0 472.4V484.4" stroke="#CBD5E1" stroke-width="1.6" stroke-linecap="round" opacity=".6"/><path d="M704.2 318.6H714.2M709.2 313.6V323.6" stroke="#94A3B8" stroke-width="1.6" stroke-linecap="round" opacity=".6"/><path d="M50.3 58.1H62.3M56.3 52.1V64.1" stroke="#94A3B8" stroke-width="1.6" stroke-linecap="round" opacity=".6"/><path d="M398.0 546.3H410.0M404.0 540.3V552.3" stroke="#CBD5E1" stroke-width="1.6" stroke-linecap="round" opacity=".6"/><path d="M547.5 222.3H559.5M553.5 216.3V228.3" stroke="#94A3B8" stroke-width="1.6" stroke-linecap="round" opacity=".6"/><path d="M29.5 340.9H41.5M35.5 334.9V346.9" stroke="#CBD5E1" stroke-width="1.6" stroke-linecap="round" opacity=".6"/><path d="M133.0 262.3H145.0M139.0 256.3V268.3" stroke="#94A3B8" stroke-width="1.6" stroke-linecap="round" opacity=".6"/><path d="M447.8 178.6H461.8M454.8 171.6V185.6" stroke="#CBD5E1" stroke-width="1.6" stroke-linecap="round" opacity=".6"/><path d="M24.3 25.1H34.3M29.3 20.1V30.1" stroke="#94A3B8" stroke-width="1.6" stroke-linecap="round" opacity=".6"/><path d="M178.1 538.0H192.1M185.1 531.0V545.0" stroke="#CBD5E1" stroke-width="1.6" stroke-linecap="round" opacity=".6"/><path d="M254.3 241.2H268.3M261.3 234.2V248.2" stroke="#94A3B8" stroke-width="1.6" stroke-linecap="round" opacity=".6"/><path d="M182.8 516.0H194.8M188.8 510.0V522.0" stroke="#CBD5E1" stroke-width="1.6" stroke-linecap="round" opacity=".6"/><path d="M207.1 519.5H221.1M214.1 512.5V526.5" stroke="#94A3B8" stroke-width="1.6" stroke-linecap="round" opacity=".6"/><path d="M11.5 168.4H23.5M17.5 162.4V174.4" stroke="#CBD5E1" stroke-width="1.6" stroke-linecap="round" opacity=".6"/><path d="M680.8 278.3H692.8M686.8 272.3V284.3" stroke="#CBD5E1" stroke-width="1.6" stroke-linecap="round" opacity=".6"/><path d="M580.7 95.5H592.7M586.7 89.5V101.5" stroke="#94A3B8" stroke-width="1.6" stroke-linecap="round" opacity=".6"/><path d="M0.3 670.4H12.3M6.3 664.4V676.4" stroke="#94A3B8" stroke-width="1.6" stroke-linecap="round" opacity=".6"/><path d="M431.2 236.0H443.2M437.2 230.0V242.0" stroke="#CBD5E1" stroke-width="1.6" stroke-linecap="round" opacity=".6"/><path d="M255.5 563.2H265.5M260.5 558.2V568.2" stroke="#94A3B8" stroke-width="1.6" stroke-linecap="round" opacity=".6"/><path d="M276.0 115.2H288.0M282.0 109.2V121.2" stroke="#94A3B8" stroke-width="1.6" stroke-linecap="round" opacity=".6"/><path d="M460.7 346.8H474.7M467.7 339.8V353.8" stroke="#CBD5E1" stroke-width="1.6" stroke-linecap="round" opacity=".6"/><path d="M110.7 307.1H120.7M115.7 302.1V312.1" stroke="#94A3B8" stroke-width="1.6" stroke-linecap="round" opacity=".6"/><path d="M185.7 60.5H195.7M190.7 55.5V65.5" stroke="#CBD5E1" stroke-width="1.6" stroke-linecap="round" opacity=".6"/><path d="M352.9 511.0H364.9M358.9 505.0V517.0" stroke="#94A3B8" stroke-width="1.6" stroke-linecap="round" opacity=".6"/><path d="M161.6 300.1H175.6M168.6 293.1V307.1" stroke="#94A3B8" stroke-width="1.6" stroke-linecap="round" opacity=".6"/><path d="M531.5 609.8H545.5M538.5 602.8V616.8" stroke="#94A3B8" stroke-width="1.6" stroke-linecap="round" opacity=".6"/><path d="M555.4 211.6H567.4M561.4 205.6V217.6" stroke="#CBD5E1" stroke-width="1.6" stroke-linecap="round" opacity=".6"/><path d="M263.5 531.4H273.5M268.5 526.4V536.4" stroke="#CBD5E1" stroke-width="1.6" stroke-linecap="round" opacity=".6"/><path d="M173.1 176.6H183.1M178.1 171.6V181.6" stroke="#CBD5E1" stroke-width="1.6" stroke-linecap="round" opacity=".6"/><use href="#bars" x="130.7" y="593.8" width="64.9" height="64.9" style="color:#F2994A" transform="rotate(-12.0 163.1 626.3)" opacity="0.74"/><use href="#target" x="7.3" y="488.8" width="65.1" height="65.1" style="color:#2F80ED" transform="rotate(0.0 39.8 521.4)" opacity="0.87"/><use href="#phone" x="501.3" y="137.2" width="63.2" height="63.2" style="color:#1F2937" transform="rotate(25.0 533.0 168.8)" opacity="0.79"/><use href="#search" x="622.9" y="3.5" width="54.4" height="54.4" style="color:#10B981" transform="rotate(-12.0 650.1 30.7)" opacity="0.93"/><use href="#target" x="597.1" y="491.9" width="55.2" height="55.2" style="color:#F2994A" transform="rotate(-18.0 624.7 519.5)" opacity="0.90"/><use href="#megaphone" x="356.1" y="482.5" width="74.6" height="74.6" style="color:#1F2937" transform="rotate(0.0 393.4 519.9)" opacity="0.80"/><use href="#coin" x="260.2" y="113.6" width="54.1" height="54.1" style="color:#9B51E0" transform="rotate(0.0 287.2 140.7)" opacity="0.83"/><use href="#mail" x="623.3" y="359.6" width="67.4" height="67.4" style="color:#9B51E0" transform="rotate(25.0 657.0 393.3)" opacity="0.89"/><use href="#coin" x="261.5" y="233.4" width="60.7" height="60.7" style="color:#10B981" transform="rotate(0.0 291.8 263.7)" opacity="0.73"/><use href="#search" x="4.8" y="239.4" width="61.6" height="61.6" style="color:#27AE60" transform="rotate(25.0 35.7 270.2)" opacity="0.76"/><use href="#bars" x="505.7" y="492.4" width="71.4" height="71.4" style="color:#9B51E0" transform="rotate(-25.0 541.4 528.0)" opacity="0.89"/><use href="#bulb" x="470.9" y="351.0" width="74.5" height="74.5" style="color:#27AE60" transform="rotate(0.0 508.2 388.3)" opacity="0.76"/><use href="#coin" x="468.6" y="605.7" width="71.6" height="71.6" style="color:#9B51E0" transform="rotate(0.0 504.4 641.5)" opacity="0.79"/><use href="#chat" x="383.6" y="267.1" width="65.5" height="65.5" style="color:#2F80ED" transform="rotate(0.0 416.3 299.9)" opacity="0.83"/><use href="#cursor" x="15.1" y="-10.0" width="61.5" height="61.5" style="color:#0EA5E9" transform="rotate(-18.0 45.9 20.7)" opacity="0.74"/><use href="#target" x="126.8" y="344.9" width="75.2" height="75.2" style="color:#F2994A" transform="rotate(25.0 164.4 382.5)" opacity="0.75"/><use href="#chat" x="-6.9" y="599.2" width="56.0" height="56.0" style="color:#1F2937" transform="rotate(0.0 21.1 627.1)" opacity="0.87"/><use href="#bulb" x="130.9" y="115.1" width="55.9" height="55.9" style="color:#1F2937" transform="rotate(-12.0 158.9 143.1)" opacity="0.86"/><use href="#coin" x="344.1" y="344.8" width="75.4" height="75.4" style="color:#10B981" transform="rotate(25.0 381.8 382.5)" opacity="0.84"/><use href="#phone" x="592.3" y="625.1" width="69.5" height="69.5" style="color:#F2994A" transform="rotate(25.0 627.0 659.9)" opacity="0.84"/><use href="#phone" x="123.2" y="258.4" width="55.9" height="55.9" style="color:#2F80ED" transform="rotate(-25.0 151.1 286.3)" opacity="0.90"/><use href="#target" x="239.4" y="-6.5" width="68.5" height="68.5" style="color:#1F2937" transform="rotate(-12.0 273.7 27.8)" opacity="0.94"/><use href="#cursor" x="377.5" y="616.2" width="70.4" height="70.4" style="color:#EB5757" transform="rotate(18.0 412.7 651.4)" opacity="0.87"/><use href="#search" x="4.2" y="134.6" width="71.1" height="71.1" style="color:#EB5757" transform="rotate(-18.0 39.7 170.2)" opacity="0.77"/><use href="#megaphone" x="489.3" y="237.8" width="70.7" height="70.7" style="color:#9B51E0" transform="rotate(25.0 524.6 273.1)" opacity="0.77"/><use href="#phone" x="110.7" y="-10.6" width="74.5" height="74.5" style="color:#27AE60" transform="rotate(18.0 148.0 26.7)" opacity="0.77"/><use href="#search" x="1.3" y="374.5" width="63.6" height="63.6" style="color:#10B981" transform="rotate(0.0 33.1 406.3)" opacity="0.94"/><use href="#target" x="600.4" y="129.3" width="73.4" height="73.4" style="color:#10B981" transform="rotate(12.0 637.1 166.0)" opacity="0.93"/><use href="#target" x="264.2" y="614.4" width="70.9" height="70.9" style="color:#10B981" transform="rotate(-18.0 299.7 649.9)" opacity="0.82"/><use href="#bars" x="600.8" y="249.2" width="75.4" height="75.4" style="color:#F2994A" transform="rotate(0.0 638.5 286.9)" opacity="0.86"/><text x="621.2" y="413.2" transform="rotate(12 621.2 413.2)" fill="#64748B" opacity=".72" class="t" font-size="10px">CTR</text><text x="191.1" y="187.2" transform="rotate(0 191.1 187.2)" fill="#94A3B8" opacity=".72" class="t" font-size="12px">CTR</text><text x="464.3" y="693.8" transform="rotate(0 464.3 693.8)" fill="#64748B" opacity=".72" class="t" font-size="10px">CTR</text><text x="620.3" y="177.2" transform="rotate(-12 620.3 177.2)" fill="#94A3B8" opacity=".72" class="t" font-size="11px">CPC</text><text x="616.3" y="178.4" transform="rotate(0 616.3 178.4)" fill="#A3A3A3" opacity=".72" class="t" font-size="10px">CPC</text><text x="681.6" y="416.6" transform="rotate(0 681.6 416.6)" fill="#A3A3A3" opacity=".72" class="t" font-size="11px">CPC</text><text x="609.0" y="325.4" transform="rotate(12 609.0 325.4)" fill="#94A3B8" opacity=".72" class="t" font-size="12px">ROAS</text><text x="91.9" y="425.4" transform="rotate(12 91.9 425.4)" fill="#94A3B8" opacity=".72" class="t" font-size="10px">ROAS</text><text x="270.7" y="116.1" transform="rotate(0 270.7 116.1)" fill="#94A3B8" opacity=".72" class="t" font-size="11px">ROAS</text><text x="427.6" y="463.1" transform="rotate(0 427.6 463.1)" fill="#64748B" opacity=".72" class="t" font-size="10px">CPA</text><text x="298.1" y="272.8" transform="rotate(12 298.1 272.8)" fill="#94A3B8" opacity=".72" class="t" font-size="10px">CPA</text><text x="41.4" y="357.0" transform="rotate(-12 41.4 357.0)" fill="#64748B" opacity=".72" class="t" font-size="10px">CPA</text><text x="88.9" y="288.8" transform="rotate(0 88.9 288.8)" fill="#A3A3A3" opacity=".72" class="t" font-size="12px">SEO</text><text x="82.0" y="131.3" transform="rotate(12 82.0 131.3)" fill="#64748B" opacity=".72" class="t" font-size="11px">SEO</text><text x="474.1" y="304.1" transform="rotate(0 474.1 304.1)" fill="#A3A3A3" opacity=".72" class="t" font-size="11px">SEO</text><text x="405.2" y="262.9" transform="rotate(-12 405.2 262.9)" fill="#64748B" opacity=".72" class="t" font-size="10px">PPC</text><text x="458.2" y="285.7" transform="rotate(-12 458.2 285.7)" fill="#94A3B8" opacity=".72" class="t" font-size="10px">PPC</text><text x="315.2" y="126.5" transform="rotate(0 315.2 126.5)" fill="#64748B" opacity=".72" class="t" font-size="10px">PPC</text><text x="412.9" y="268.0" transform="rotate(0 412.9 268.0)" fill="#94A3B8" opacity=".72" class="t" font-size="10px">%</text><text x="55.2" y="116.9" transform="rotate(-12 55.2 116.9)" fill="#A3A3A3" opacity=".72" class="t" font-size="10px">%</text><text x="443.1" y="272.2" transform="rotate(0 443.1 272.2)" fill="#64748B" opacity=".72" class="t" font-size="10px">%</text><text x="212.6" y="374.4" transform="rotate(0 212.6 374.4)" fill="#64748B" opacity=".72" class="t" font-size="10px">%</text><text x="353.5" y="567.3" transform="rotate(0 353.5 567.3)" fill="#94A3B8" opacity=".72" class="t" font-size="11px">$</text><text x="589.4" y="49.6" transform="rotate(-12 589.4 49.6)" fill="#94A3B8" opacity=".72" class="t" font-size="11px">$</text><text x="433.2" y="452.7" transform="rotate(0 433.2 452.7)" fill="#A3A3A3" opacity=".72" class="t" font-size="12px">$</text><text x="488.0" y="626.0" transform="rotate(0 488.0 626.0)" fill="#64748B" opacity=".72" class="t" font-size="12px">$</text></svg>